#!OML:ASF I:\Actors\actors\Patient Classification 1\Patient 1\Session 1\Subject1.ASF
:FULLY-SPECIFIED
:DEGREES
454
root 0.644917 17.5962 8.16811 14.6867 23.54 -10.0384
lowerback 2.88969 4.9738 7.43531
upperback 0.349557 6.83846 -2.59563
thorax -0.0627616 3.44107 -6.98617
lowerneck -4.23523 -4.44053 3.10757
upperneck 51.7813 -6.96989 2.19814
head 22.2411 -1.42428 -0.477192
rclavicle 7.55382e-015 -5.32743e-014
rhumerus 32.4436 59.2798 -52.2673
rradius 41.0719
rwrist 13.8508
rhand 9.21551 -28.3489
rfingers 7.12502
rthumb 34.3819 -55.0471
lclavicle 7.55382e-015 -5.32743e-014
lhumerus 34.7192 -70.8431 34.7643
lradius 43.5168
lwrist 21.5174
lhand -17.9402 -6.91343
lfingers 7.12502
lthumb 8.32806 22.9024
rfemur -7.2956 29.6564 21.5757
rtibia 0.102464
rfoot -38.2315 -45.5384
rtoes 29.7486
lfemur -18.3414 -47.5211 6.72808
ltibia -5.60693
lfoot -3.61624 40.6645
ltoes -6.01564
455
root 0.645685 17.5974 8.16337 14.7236 23.6349 -10.0135
lowerback 2.89018 4.95554 7.34843
upperback 0.405234 6.81047 -2.44495
thorax -0.0389852 3.42831 -6.77697
lowerneck -4.25926 -4.60572 2.9406
upperneck 51.7386 -7.59214 2.99462
head 22.3367 -1.60882 -0.121614
rclavicle -1.55052e-014 4.77083e-015
rhumerus 32.4257 59.3268 -52.1666
rradius 41.1276
rwrist 13.8
rhand 9.1992 -28.5695
rfingers 7.12502
rthumb 34.3664 -55.2712
lclavicle -1.55052e-014 4.77083e-015
lhumerus 34.9932 -70.9098 34.7166
lradius 43.4128
lwrist 21.5307
lhand -17.8886 -7.02393
lfingers 7.12502
lthumb 8.3778 22.7899
rfemur -7.2665 30.0482 21.5348
rtibia 0.0227629
rfoot -38.8826 -45.7824
rtoes 30.1909
lfemur -18.4848 -47.5725 6.81623
ltibia -5.59763
lfoot -3.75945 40.6425
ltoes -5.68594
456
root 0.646897 17.5987 8.16101 14.7124 23.6839 -9.99329
lowerback 2.89016 4.95441 7.23243
upperback 0.477887 6.80405 -2.27277
thorax 0.000448876 3.42725 -6.52817
lowerneck -4.38323 -4.72539 2.87006
upperneck 51.8053 -8.06719 3.56702
head 22.5525 -1.73336 0.119955
rclavicle -3.4191e-014 5.32743e-014
rhumerus 32.5388 59.4781 -51.8607
rradius 41.1579
rwrist 13.71
rhand 9.19576 -28.7507
rfingers 7.12502
rthumb 34.3632 -55.4531
lclavicle -3.4191e-014 5.32743e-014
lhumerus 35.1974 -70.9829 34.7605
lradius 43.3436
lwrist 21.6123
lhand -17.7646 -7.19863
lfingers 7.12502
lthumb 8.49754 22.6104
rfemur -7.17542 30.4433 21.5311
rtibia -0.0417887
rfoot -39.4607 -46.0003
rtoes 30.4752
lfemur -18.4354 -47.6305 6.76079
ltibia -5.65537
lfoot -3.69529 40.6223
ltoes -5.76332
457
root 0.649823 17.599 8.15743 14.7645 23.6999 -9.95966
lowerback 2.84205 4.95776 7.15019
upperback 0.50945 6.80227 -2.1408
thorax 0.033746 3.42735 -6.33811
lowerneck -4.48499 -4.83716 2.76096
upperneck 51.8851 -8.49978 4.10216
head 22.7829 -1.85388 0.359297
rclavicle -1.51076e-014 5.56597e-015
rhumerus 32.6735 59.6975 -51.5734
rradius 41.1122
rwrist 13.7049
rhand 9.15809 -28.5408
rfingers 7.12502
rthumb 34.3274 -55.2513
lclavicle -1.51076e-014 5.56597e-015
lhumerus 35.071 -71.0052 35.0945
lradius 43.2993
lwrist 21.6379
lhand -17.3796 -7.37078
lfingers 7.12502
lthumb 8.86905 22.4228
rfemur -7.19418 30.6326 21.4596
rtibia -0.0700222
rfoot -39.7013 -46.1293
rtoes 30.4685
lfemur -18.4917 -47.6293 6.74762
ltibia -5.6772
lfoot -3.4997 40.6159
ltoes -6.09829
458
root 0.653075 17.5995 8.15422 14.8411 23.6698 -9.92705
lowerback 2.76316 4.96872 7.0913
upperback 0.522523 6.80962 -2.04723
thorax 0.0739907 3.4321 -6.1991
lowerneck -4.59375 -4.93733 2.64282
upperneck 51.9393 -8.8924 4.59375
head 22.9952 -1.96791 0.584435
rclavicle -1.05356e-014 -1.03368e-014
rhumerus 32.976 60.0228 -51.1394
rradius 41.078
rwrist 13.5388
rhand 8.97124 -28.5074
rfingers 7.12502
rthumb 34.15 -55.2577
lclavicle -1.05356e-014 -1.03368e-014
lhumerus 34.8986 -71.0108 35.4143
lradius 43.2453
lwrist 21.58
lhand -17.2216 -7.50768
lfingers 7.12502
lthumb 9.02149 22.2794
rfemur -7.27856 30.6354 21.3666
rtibia -0.0564497
rfoot -39.6838 -46.1077
rtoes 30.4825
lfemur -18.538 -47.5716 6.73524
ltibia -5.71124
lfoot -3.52796 40.6028
ltoes -6.01357
